<svg xmlns="http://www.w3.org/2000/svg" viewBox="0 0 250 250">
  <defs>
    <linearGradient gradientUnits="userSpaceOnUse" x1="225" y1="173.428" x2="225" y2="197.758" id="gradient-0">
      <stop offset="0" style="stop-color: rgb(46, 225, 36)"></stop>
      <stop offset="1" style="stop-color: rgb(0% 51.828% 0%)"></stop>
    </linearGradient>
  </defs>
  <path d="M 113.048 114.315 L 137.982 114.315 C 149.341 114.315 160.284 115.287 170.556 117.085 C 171.682 115.73 173.73 114.399 176.701 113.089 L 213.146 97.042 C 222.691 92.839 227.445 95.175 227.411 104.052 L 227.274 137.943 C 227.269 138.876 227.214 139.734 227.107 140.519 C 238.41 149.827 244.997 161.008 244.997 173.035 C 244.997 205.465 197.085 231.755 137.982 231.755 L 113.048 231.755 C 53.946 231.755 6.033 205.465 6.033 173.035 C 6.033 160.756 12.901 149.36 24.643 139.935 C 24.534 139.151 24.478 138.292 24.474 137.358 L 24.339 103.467 C 24.303 94.589 29.056 92.252 38.602 96.456 L 75.047 112.504 C 78.317 113.946 80.47 115.413 81.504 116.908 C 91.476 115.223 102.07 114.315 113.048 114.315 Z" style="stroke: rgb(0, 0, 0); stroke-width: 0px; fill-rule: nonzero;"></path>
  <ellipse style="stroke: rgb(0, 0, 0); fill: rgb(255, 255, 255); stroke-width: 0px;" cx="184.008" cy="161.788" rx="13.91" ry="6.561"></ellipse>
  <ellipse style="stroke: rgb(0, 0, 0); fill: rgb(255, 255, 255); stroke-width: 0px;" cx="67.023" cy="161.788" rx="13.91" ry="6.561"></ellipse>
  <ellipse style="fill: url(#gradient-0); stroke: rgb(0, 0, 0);" cx="182.324" cy="210.822" rx="60.783" ry="35.613"></ellipse>
</svg>